<?xml version="1.0" encoding="UTF-8"?>
<svg xmlns="http://www.w3.org/2000/svg" xmlns:xlink="http://www.w3.org/1999/xlink" width="500px" height="500px" viewBox="0 0 20 20" version="1.1">
<g id="surface1">
<rect x="0" y="0" width="20" height="20" style="fill:rgb(13.72549%,12.156863%,12.54902%);fill-opacity:1;stroke:none;"/>
<path style=" stroke:none;fill-rule:nonzero;fill:rgb(100%,100%,100%);fill-opacity:1;" d="M 14.949219 16.632812 L 4.421875 16.632812 L 4.421875 3.367188 L 14.949219 3.367188 L 14.949219 5.789062 L 15.578125 5.789062 L 15.578125 2.738281 L 3.789062 2.738281 L 3.789062 17.261719 L 15.578125 17.261719 L 15.578125 14.105469 L 14.949219 14.105469 Z M 14.949219 16.632812 "/>
<path style=" stroke:none;fill-rule:nonzero;fill:rgb(100%,100%,100%);fill-opacity:1;" d="M 9.050781 6.738281 C 9.578125 6.738281 10.105469 6.316406 10.105469 5.789062 C 10.105469 5.261719 9.683594 4.738281 9.15625 4.738281 C 8.632812 4.738281 8.105469 5.15625 8.105469 5.683594 C 8 6.316406 8.527344 6.738281 9.050781 6.738281 Z M 9.050781 6.738281 "/>
<path style=" stroke:none;fill-rule:nonzero;fill:rgb(100%,100%,100%);fill-opacity:1;" d="M 10 15.683594 L 10 12.632812 L 11.15625 12.632812 L 11.15625 8.632812 C 11.15625 8 10.632812 7.472656 10 7.472656 L 8 7.472656 C 7.367188 7.472656 6.84375 8 6.84375 8.632812 L 6.84375 12.632812 L 8 12.632812 L 8 15.683594 L 8.632812 15.683594 L 8.632812 12.632812 L 9.367188 12.632812 L 9.367188 15.683594 Z M 10 15.683594 "/>
<path style=" stroke:none;fill-rule:nonzero;fill:rgb(100%,100%,100%);fill-opacity:1;" d="M 15.261719 12.421875 L 13.894531 11.15625 L 13.472656 11.578125 L 15.261719 13.367188 L 17.050781 11.578125 L 16.632812 11.15625 Z M 15.261719 12.421875 "/>
<path style=" stroke:none;fill-rule:nonzero;fill:rgb(100%,100%,100%);fill-opacity:1;" d="M 13.472656 8.316406 L 13.894531 8.632812 L 15.261719 7.472656 L 16.632812 8.632812 L 17.050781 8.316406 L 15.261719 6.527344 Z M 13.472656 8.316406 "/>
</g>
</svg>
