<?xml version="1.0" encoding="UTF-8"?>
<svg xmlns="http://www.w3.org/2000/svg" xmlns:xlink="http://www.w3.org/1999/xlink" width="500px" height="500px" viewBox="0 0 20 20" version="1.1">
<g id="surface1">
<path style=" stroke:none;fill-rule:nonzero;fill:rgb(13.72549%,12.156863%,12.54902%);fill-opacity:1;" d="M 0.0273438 0.0078125 L 19.984375 0.0078125 L 19.984375 19.992188 L 0.0273438 19.992188 Z M 0.0273438 0.0078125 "/>
<path style=" stroke:none;fill-rule:nonzero;fill:rgb(100%,100%,100%);fill-opacity:1;" d="M 13.007812 3.15625 C 12.0625 3.15625 11.296875 3.925781 11.296875 4.871094 L 11.296875 12.441406 L 12.621094 12.441406 L 12.621094 16.722656 L 14.617188 16.722656 L 14.617188 4.742188 C 14.59375 3.867188 13.882812 3.167969 13.007812 3.15625 Z M 13.007812 3.15625 "/>
<path style=" stroke:none;fill-rule:nonzero;fill:rgb(100%,100%,100%);fill-opacity:1;" d="M 9.480469 7.238281 L 9.480469 7.574219 L 8.816406 7.574219 L 8.816406 3.15625 L 8.15625 3.15625 L 8.15625 7.574219 L 7.480469 7.574219 L 7.480469 3.15625 L 6.863281 3.15625 L 6.863281 7.574219 L 6.152344 7.574219 L 6.152344 3.148438 L 5.496094 3.148438 L 5.496094 7.574219 C 5.515625 8.371094 6.082031 9.050781 6.863281 9.207031 L 6.863281 16.746094 L 8.859375 16.746094 L 8.859375 9.207031 C 9.625 9.035156 10.175781 8.359375 10.191406 7.574219 L 10.191406 3.15625 L 9.523438 3.15625 Z M 9.480469 7.238281 "/>
</g>
</svg>
