<?xml version="1.0" encoding="UTF-8"?>
<svg xmlns="http://www.w3.org/2000/svg" xmlns:xlink="http://www.w3.org/1999/xlink" width="500px" height="500px" viewBox="0 0 20 20" version="1.1">
<g id="surface1">
<path style=" stroke:none;fill-rule:nonzero;fill:rgb(13.72549%,12.156863%,12.54902%);fill-opacity:1;" d="M 0.527344 0.523438 L 19.480469 0.523438 L 19.480469 19.476562 L 0.527344 19.476562 Z M 0.527344 0.523438 "/>
<path style=" stroke:none;fill-rule:nonzero;fill:rgb(100%,100%,100%);fill-opacity:1;" d="M 18.957031 1.039062 L 18.957031 18.953125 L 1.042969 18.953125 L 1.042969 1.039062 L 18.957031 1.039062 M 20.027344 0 L 0.00390625 0 L 0.00390625 20.023438 L 20.027344 20.023438 Z M 20.027344 0 "/>
<path style=" stroke:none;fill-rule:nonzero;fill:rgb(100%,100%,100%);fill-opacity:1;" d="M 11.125 4.460938 C 11.125 5.113281 10.59375 5.644531 9.9375 5.644531 C 9.285156 5.644531 8.753906 5.113281 8.753906 4.460938 C 8.753906 3.804688 9.285156 3.273438 9.9375 3.273438 C 10.59375 3.273438 11.125 3.804688 11.125 4.460938 Z M 11.125 4.460938 "/>
<path style=" stroke:none;fill-rule:nonzero;fill:rgb(100%,100%,100%);fill-opacity:1;" d="M 11.285156 7.578125 C 11.15625 6.9375 10.59375 6.476562 9.941406 6.476562 C 9.289062 6.476562 8.726562 6.9375 8.597656 7.578125 L 7.613281 12.96875 L 8.84375 12.96875 L 8.84375 16.820312 L 9.4375 16.820312 L 9.4375 12.96875 L 10.445312 12.96875 L 10.445312 16.820312 L 11.039062 16.820312 L 11.039062 12.96875 L 12.273438 12.96875 Z M 11.285156 7.578125 "/>
</g>
</svg>
