<?xml version="1.0" encoding="UTF-8"?>
<svg xmlns="http://www.w3.org/2000/svg" xmlns:xlink="http://www.w3.org/1999/xlink" width="500px" height="500px" viewBox="0 0 20 20" version="1.1">
<g id="surface1">
<rect x="0" y="0" width="20" height="20" style="fill:rgb(13.72549%,12.156863%,12.54902%);fill-opacity:1;stroke:none;"/>
<path style=" stroke:none;fill-rule:nonzero;fill:rgb(100%,100%,100%);fill-opacity:1;" d="M 12.261719 5.050781 L 3.84375 14.359375 L 4.335938 14.800781 L 5.328125 13.746094 L 10.96875 13.746094 C 11.574219 13.742188 12.085938 13.292969 12.167969 12.695312 L 12.167969 6.136719 L 12.726562 5.503906 C 13.675781 4.453125 15.027344 3.851562 16.441406 3.851562 L 16.441406 3.15625 C 14.84375 3.175781 13.328125 3.863281 12.261719 5.050781 Z M 12.261719 5.050781 "/>
<path style=" stroke:none;fill-rule:nonzero;fill:rgb(100%,100%,100%);fill-opacity:1;" d="M 9.304688 6.367188 C 9.304688 7.101562 8.710938 7.695312 7.980469 7.695312 C 7.246094 7.695312 6.652344 7.101562 6.652344 6.367188 C 6.652344 5.636719 7.246094 5.042969 7.980469 5.042969 C 8.710938 5.042969 9.304688 5.636719 9.304688 6.367188 Z M 9.304688 6.367188 "/>
<path style=" stroke:none;fill-rule:nonzero;fill:rgb(100%,100%,100%);fill-opacity:1;" d="M 8.199219 15.757812 C 8.199219 16.402344 7.675781 16.925781 7.03125 16.925781 C 6.386719 16.925781 5.863281 16.402344 5.863281 15.757812 C 5.863281 15.113281 6.386719 14.589844 7.03125 14.589844 C 7.675781 14.589844 8.199219 15.113281 8.199219 15.757812 Z M 8.199219 15.757812 "/>
<path style=" stroke:none;fill-rule:nonzero;fill:rgb(100%,100%,100%);fill-opacity:1;" d="M 12.9375 15.757812 C 12.9375 16.402344 12.414062 16.925781 11.769531 16.925781 C 11.125 16.925781 10.601562 16.402344 10.601562 15.757812 C 10.601562 15.113281 11.125 14.589844 11.769531 14.589844 C 12.414062 14.589844 12.9375 15.113281 12.9375 15.757812 Z M 12.9375 15.757812 "/>
</g>
</svg>
