<?xml version="1.0" encoding="utf-8"?>
<!-- Generator: Adobe Illustrator 25.2.1, SVG Export Plug-In . SVG Version: 6.00 Build 0)  -->
<svg version="1.1" id="Layer_1" xmlns="http://www.w3.org/2000/svg" xmlns:xlink="http://www.w3.org/1999/xlink" x="0px" y="0px" width="68.9" height="62.6" 
	 viewBox="0 0 68.9 62.6" style="enable-background:new 0 0 68.9 62.6;" xml:space="preserve">
<style type="text/css">
	.st0{fill:none;stroke:#000000;stroke-miterlimit:10;}
	.st1{fill:#020202;stroke:#000000;stroke-miterlimit:10;}
</style>
<g>
	<path class="st0" d="M18.2,27.8c2.5-1.7,3.8-3.9,5.2-4.7c0.9-0.5,4-0.2,5-0.1c1,0.1,3.2-0.4,4.1,0.1c1.3,0.7,2.7,3.2,3.2,4.6"/>
	<path class="st0" d="M37.8,40.8c-1.2-0.1-0.9,0.8-0.9,2.4c0,0.6-1.2,2-2.3,1.1c-0.5-0.4-0.9-1.2-1.7-1.8c-1-0.7-2.1-1.2-3.2-1.7
		c-1.7-0.7-3.1-0.6-5.4,0c-0.5,0.1-2.4,0.8-3.1,1.3c-0.8,0.7-0.5,1.3-0.9,1.8c-0.9,1.2-2.5,0.5-2.9-0.1c-0.8-1.1,0.4-4.6,0.5-6
		c0.1-1.1-0.3-2.7-0.5-4.6c-0.2-1.8,0.6-5.5,1.1-7.2c0.4-1.3,1.2-3.5,2-4.6c1.3-1.6,3.6-2.8,5.1-4.2c1.1-1,3.6-1.6,4.8-1.7
		c2.7-0.1,5.5,0.1,8.2,0.4c3,0.5,3.8,0.9,5.9,3.2c1.7,1.9,4.4,2.9,5.4,7.6c0.1,0.5,0.1,3.5,0.4,3.9c1.8,2.7,1.6,6.6,1.3,8.1
		c-0.2,0.9-1.3,1.4-1.6,0.6c-0.8-1.7-1.2-2.7-2-0.4c-0.1,0.4,0.4,0.2-0.7,2.4c-0.4,0.8-1.8,0.6-1.9,0.5c-1.2-3.7-1.7-1.6-1.8-3.1
		c0-0.7-0.3,1.9-0.9,3.3c0,0-1.2,1.5-2.4,0.3C39.9,42.2,38.8,40.9,37.8,40.8z"/>
	<ellipse class="st0" cx="25.6" cy="33" rx="5" ry="5.2"/>
	<ellipse class="st0" cx="25.6" cy="34.9" rx="1.9" ry="1.7"/>
	<path class="st0" d="M24.2,33.6l0.5-1.8c0.2-0.3,0.6-0.4,0.9-0.4c0.4,0,0.7,0.2,1,0.5l0.4,1.8c-0.5-0.2-1-0.3-1.5-0.3
		C25.1,33.4,24.6,33.4,24.2,33.6z"/>
	<circle class="st1" cx="25.6" cy="35.2" r="0.7"/>
	<path class="st0" d="M20.8,33.5c-1.2-0.8-1.1-3-1-4.1c0.1-0.9,0.8-2.4,1.5-2.8c0.6-0.4,3.5-2.3,5.6-1.8c1.7,0.4,1.9,0.7,3.3,1.5
		c0.6,0.3,1,0.8,1.3,1.3c0.6,1,0.8,3.3,0.7,4.1c-0.1,1.1-0.9,2.1-2,2.4"/>
	<path class="st0" d="M20.1,37c1.3,1.1,2.8,1.9,4.4,2.4c4,1,5.7-3.6,7.9-3.5"/>
	<path class="st0" d="M36.9,41.6c-0.1-0.9,0.1-2.9-0.7-4.4c-0.3-0.7,1.9-3.7,0.4-5.5"/>
	<path class="st0" d="M40.6,21.3c1.3,0.4,4.4-0.2,5.6,10c0.2,1.9,3.3,2.3,1.8,8.4"/>
	<path class="st0" d="M40.2,27.3c0.6,0.5,1.8,1.6,2.3,5c0.2,1.5,2,2.5,1.1,6.7"/>
	<path class="st0" d="M19.5,23.9c1-1.3,3.6-2.5,4.7-3.8c0.8-0.9,4.8-0.2,6.1-0.1c1.3,0.1,3.9-0.4,4.9,0.1c1.5,0.7,3.2,3.2,3.8,4.6"
		/>
	<path class="st0" d="M26.5,16.9c0.9-0.3,4-0.1,5.1-0.1s3.3-0.2,4.2,0.1c1.3,0.5,2.7,2,3.2,2.9"/>
	<path d="M41.4,43.1c-0.2-0.1-0.5-0.1-0.7,0c-0.3,0.5,0.2,2.5,0.2,2.5S40.4,43.6,41.4,43.1z"/>
	<path d="M42,43.1c-0.2-0.1-0.5-0.1-0.7,0c-0.3,0.5,0.2,2.5,0.2,2.5S41.1,43.6,42,43.1z"/>
	<path d="M42.2,42.8c0,0-0.6,0-0.6,0.2c-0.1,0.6,1.4,2.3,1.4,2.3S41.6,43.5,42.2,42.8z"/>
	<path d="M42.8,42.6c0,0-0.6,0-0.6,0.2c-0.1,0.6,1.4,2.3,1.4,2.3S42.2,43.3,42.8,42.6z"/>
	<path d="M46.2,42.2c-0.2-0.1-0.5-0.1-0.7,0c-0.3,0.5,0,2.5,0,2.5S45.2,42.7,46.2,42.2z"/>
	<path d="M46.8,42.2c-0.2-0.1-0.5-0.1-0.7,0c-0.3,0.5,0,2.5,0,2.5S45.9,42.7,46.8,42.2z"/>
	<path d="M47,41.9c0,0-0.6,0-0.7,0.1c-0.1,0.6,1.3,2.4,1.3,2.4S46.4,42.6,47,41.9z"/>
	<path d="M47.6,41.8c0,0-0.6,0-0.7,0.1c-0.1,0.6,1.3,2.4,1.3,2.4S47,42.5,47.6,41.8z"/>
	<path d="M50.3,39.9c-0.2-0.1-0.4-0.1-0.5,0c-0.2,0.4,0.1,2,0.1,2S49.6,40.4,50.3,39.9z"/>
	<path d="M50.8,39.9c-0.2-0.1-0.4-0.1-0.5,0c-0.2,0.4,0.1,2,0.1,2S50.1,40.4,50.8,39.9z"/>
	<path d="M51,39.7c-0.2,0-0.4,0-0.5,0.1c0,0.4,1.1,1.8,1.1,1.8S50.5,40.3,51,39.7z"/>
	<path d="M51.5,39.6c-0.2,0-0.4,0-0.5,0.1c0,0.4,1.1,1.8,1.1,1.8S51,40.1,51.5,39.6z"/>
	<path d="M35.2,44.8c-0.2-0.1-0.5-0.1-0.7,0c-0.3,0.5,0.3,2.5,0.3,2.5S34.4,45.4,35.2,44.8z"/>
	<path d="M35.9,44.8c-0.2-0.1-0.5-0.1-0.7,0c-0.3,0.5,0.3,2.5,0.3,2.5S35,45.4,35.9,44.8z"/>
	<path d="M36.1,44.5c0,0-0.6,0-0.6,0.2c0,0.6,1.5,2.2,1.5,2.2S35.5,45.2,36.1,44.5z"/>
	<path d="M36.7,44.3c0,0-0.6,0-0.6,0.2c0,0.6,1.5,2.2,1.5,2.2S36.1,45.1,36.7,44.3z"/>
	<path d="M18.8,44.8c0.2-0.1,0.4-0.1,0.6,0c0.3,0.6-0.2,2.5-0.2,2.5S19.6,45.4,18.8,44.8z"/>
	<path d="M18.2,44.8c0.2-0.1,0.4-0.1,0.6,0c0.3,0.5-0.1,2.5-0.1,2.5S19,45.4,18.2,44.8z"/>
	<path d="M18.1,44.5c0.2,0,0.4,0,0.6,0.2c0,0.6-1.2,2.3-1.2,2.3S18.6,45.2,18.1,44.5z"/>
	<path d="M17.5,44.4c0.2,0,0.4,0,0.6,0.2c0,0.6-1.2,2.3-1.2,2.3S18.1,45.1,17.5,44.4z"/>
	<path class="st0" d="M29,30.2c0,0-1.7,0.9-2,1.7c-0.4,1,1.5,3.4,1.5,4.6"/>
	<path class="st0" d="M22.2,30.2c0,0,1.7,0.9,2,1.7c0.4,1-1.5,3.4-1.5,4.6"/>
</g>
<g>
	<g>
		<path d="M4.5,3.4h6.3v2.2H7.3v1.2h2.8v2H7.3v1.3H11v2.2H4.5V3.4z"/>
		<path d="M14.3,7.7l-2.5-4.3H15l1.2,2.5l1.2-2.5h2.9L18,7.6l2.7,4.6h-3.2L16,9.4l-1.5,2.9h-2.9L14.3,7.7z"/>
		<path d="M23.8,3.4h3.6l2.8,8.8h-3l-0.4-1.5H24l-0.4,1.5H21L23.8,3.4z M24.5,8.9h1.7l-0.9-3.2L24.5,8.9z"/>
		<path d="M31.1,3.4h3.6l1.5,4.3l1.5-4.3h3.6v8.8h-2.8V7.1l-2,5.2h-0.9l-2-5.2v5.2h-2.5V3.4z"/>
		<path d="M42.9,3.4h3.5c2.5,0,3.6,1.1,3.6,3v0c0,1.8-1.2,2.9-3.5,2.9h-0.9v2.9h-2.8V3.4z M46.3,7.5c0.7,0,1.1-0.3,1.1-1v0
			c0-0.7-0.4-1-1.1-1h-0.6v2H46.3z"/>
		<path d="M51.1,3.4h2.8v6.7h3.2v2.2h-6V3.4z"/>
		<path d="M58.3,3.4h6.3v2.2h-3.5v1.2h2.8v2h-2.8v1.3h3.7v2.2h-6.5V3.4z"/>
	</g>
</g>
<g>
	<g>
		<path d="M2.5,53.5H0.7v-1.7h5.9v1.7H4.8v5.4H2.5V53.5z"/>
		<path d="M8.5,51.8h2.9l2.2,7.1h-2.4l-0.3-1.2H8.7l-0.3,1.2H6.2L8.5,51.8z M9.1,56.2h1.4l-0.7-2.6L9.1,56.2z"/>
		<path d="M14.4,51.8h2.9c2,0,3,0.8,3,2.3v0c0,1-0.5,1.5-1.2,1.9l1.6,2.9h-2.4L17,56.5h-0.4v2.4h-2.3V51.8z M17.2,55
			c0.6,0,0.9-0.3,0.9-0.8v0c0-0.5-0.3-0.7-0.9-0.7h-0.5V55H17.2z"/>
		<path d="M21.5,51.8h2.7c2.6,0,3.9,1.2,3.9,3.5v0.1c0,2.3-1.3,3.6-3.9,3.6h-2.7V51.8z M24.2,57.2c1.1,0,1.6-0.5,1.6-1.8v-0.1
			c0-1.3-0.5-1.8-1.6-1.8h-0.4v3.7H24.2z"/>
		<path d="M29,51.8h2.3v7.1H29V51.8z"/>
		<path d="M32.3,55.4L32.3,55.4c0-2.3,1.6-3.7,3.8-3.7c1.7,0,3.3,0.8,3.4,2.7h-2.2c-0.1-0.6-0.4-0.9-1.1-0.9c-0.9,0-1.4,0.7-1.4,1.9
			v0.1c0,1,0.4,1.9,1.5,1.9c0.9,0,1.2-0.4,1.3-0.9h-1.2v-1.5h3.4v0.9c0,1.8-1.2,3.2-3.6,3.2C33.6,59,32.3,57.5,32.3,55.4z"/>
		<path d="M40.6,51.8h2.9c2,0,3,0.8,3,2.3v0c0,1-0.5,1.5-1.2,1.9l1.6,2.9h-2.4l-1.3-2.4h-0.4v2.4h-2.3V51.8z M43.4,55
			c0.6,0,0.9-0.3,0.9-0.8v0c0-0.5-0.3-0.7-0.9-0.7h-0.5V55H43.4z"/>
		<path d="M49.4,51.8h2.9l2.2,7.1h-2.4l-0.3-1.2h-2.3l-0.3,1.2h-2.1L49.4,51.8z M50,56.2h1.4l-0.7-2.6L50,56.2z"/>
		<path d="M55.3,51.8H58c2.6,0,3.9,1.2,3.9,3.5v0.1c0,2.3-1.3,3.6-3.9,3.6h-2.7V51.8z M57.9,57.2c1.1,0,1.6-0.5,1.6-1.8v-0.1
			c0-1.3-0.5-1.8-1.6-1.8h-0.4v3.7H57.9z"/>
		<path d="M62.8,51.8h5.1v1.7h-2.8v1h2.2v1.6h-2.2v1.1h3v1.7h-5.2V51.8z"/>
	</g>
</g>
</svg>
