<?xml version="1.0" encoding="UTF-8"?>
<svg xmlns="http://www.w3.org/2000/svg" xmlns:xlink="http://www.w3.org/1999/xlink" width="500px" height="500px" viewBox="0 0 20 20" version="1.1">
<g id="surface1">
<rect x="0" y="0" width="20" height="20" style="fill:rgb(13.72549%,12.156863%,12.54902%);fill-opacity:1;stroke:none;"/>
<path style=" stroke:none;fill-rule:nonzero;fill:rgb(100%,100%,100%);fill-opacity:1;" d="M 15 11.875 C 14.757812 11.597656 14.410156 11.433594 14.042969 11.429688 L 10.292969 11.429688 C 10.109375 11.433594 9.929688 11.351562 9.808594 11.210938 C 9.738281 11.140625 9.707031 11.035156 9.726562 10.9375 L 11.0625 5.789062 L 11.136719 5.789062 C 11.792969 5.785156 12.34375 5.300781 12.433594 4.652344 C 12.519531 4 12.117188 3.386719 11.488281 3.207031 C 10.859375 3.027344 10.191406 3.339844 9.925781 3.941406 C 9.660156 4.539062 9.875 5.242188 10.429688 5.589844 L 10.210938 6.421875 C 9.90625 6.363281 9.59375 6.328125 9.285156 6.316406 C 7.75 6.320312 6.277344 6.914062 5.167969 7.980469 L 5.621094 8.421875 C 6.621094 7.507812 7.929688 7.007812 9.285156 7.019531 C 9.535156 7.003906 9.789062 7.003906 10.042969 7.019531 L 9.714844 8.328125 L 9.273438 8.328125 C 7.019531 8.328125 5.191406 10.15625 5.191406 12.410156 C 5.191406 14.667969 7.019531 16.496094 9.273438 16.496094 C 11.53125 16.496094 13.359375 14.667969 13.359375 12.410156 C 13.363281 12.316406 13.363281 12.222656 13.359375 12.125 L 14.050781 12.125 C 14.222656 12.121094 14.386719 12.191406 14.5 12.320312 C 14.613281 12.449219 14.660156 12.621094 14.632812 12.789062 L 14.019531 16.398438 L 14.671875 16.503906 L 15.285156 12.894531 C 15.347656 12.527344 15.242188 12.152344 15 11.875 Z M 15 11.875 "/>
</g>
</svg>
