<?xml version="1.0" encoding="UTF-8"?>
<svg xmlns="http://www.w3.org/2000/svg" xmlns:xlink="http://www.w3.org/1999/xlink" width="500px" height="500px" viewBox="0 0 20 20" version="1.1">
<g id="surface1">
<path style=" stroke:none;fill-rule:nonzero;fill:rgb(13.72549%,12.156863%,12.54902%);fill-opacity:1;" d="M 0.542969 0.527344 L 19.464844 0.527344 L 19.464844 19.480469 L 0.542969 19.480469 Z M 0.542969 0.527344 "/>
<path style=" stroke:none;fill-rule:nonzero;fill:rgb(100%,100%,100%);fill-opacity:1;" d="M 1.066406 1.035156 L 18.949219 1.035156 L 18.949219 18.941406 L 1.050781 18.941406 L 1.050781 1.027344 M 0.015625 0 L 0.015625 19.984375 L 19.953125 19.984375 L 19.953125 0 Z M 0.015625 0 "/>
<path style=" stroke:none;fill-rule:nonzero;fill:rgb(100%,100%,100%);fill-opacity:1;" d="M 5.707031 7.90625 L 4.171875 12.386719 L 4.824219 12.386719 L 5.246094 11.136719 L 6.917969 11.136719 L 7.347656 12.386719 L 8.019531 12.386719 L 6.488281 7.90625 Z M 6.726562 10.566406 L 5.429688 10.566406 L 6.082031 8.648438 Z M 6.726562 10.566406 "/>
<path style=" stroke:none;fill-rule:nonzero;fill:rgb(100%,100%,100%);fill-opacity:1;" d="M 7.808594 8.480469 L 9.0625 8.480469 L 9.0625 12.386719 L 9.738281 12.386719 L 9.738281 8.480469 L 10.996094 8.488281 L 10.996094 7.90625 L 7.808594 7.90625 Z M 7.808594 8.480469 "/>
<path style=" stroke:none;fill-rule:nonzero;fill:rgb(100%,100%,100%);fill-opacity:1;" d="M 14.953125 7.90625 L 13.710938 11.148438 L 12.445312 7.953125 L 12.429688 7.90625 L 11.570312 7.90625 L 11.5625 12.394531 L 12.199219 12.394531 L 12.199219 9.050781 L 13.558594 12.394531 L 13.820312 12.394531 L 15.128906 9.0625 L 15.128906 12.394531 L 15.804688 12.394531 L 15.804688 7.914062 Z M 14.953125 7.90625 "/>
</g>
</svg>
