<?xml version="1.0" encoding="UTF-8"?>
<svg xmlns="http://www.w3.org/2000/svg" xmlns:xlink="http://www.w3.org/1999/xlink" width="500px" height="500px" viewBox="0 0 20 20" version="1.1">
<g id="surface1">
<rect x="0" y="0" width="20" height="20" style="fill:rgb(13.72549%,12.156863%,12.54902%);fill-opacity:1;stroke:none;"/>
<path style=" stroke:none;fill-rule:nonzero;fill:rgb(100%,100%,100%);fill-opacity:1;" d="M 7.683594 3.789062 C 7.683594 4.546875 7.070312 5.15625 6.316406 5.15625 C 5.558594 5.15625 4.949219 4.546875 4.949219 3.789062 C 4.949219 3.035156 5.558594 2.421875 6.316406 2.421875 C 7.070312 2.421875 7.683594 3.035156 7.683594 3.789062 Z M 7.683594 3.789062 "/>
<path style=" stroke:none;fill-rule:nonzero;fill:rgb(100%,100%,100%);fill-opacity:1;" d="M 14.84375 3.789062 C 14.84375 4.546875 14.230469 5.15625 13.472656 5.15625 C 12.71875 5.15625 12.105469 4.546875 12.105469 3.789062 C 12.105469 3.035156 12.71875 2.421875 13.472656 2.421875 C 14.230469 2.421875 14.84375 3.035156 14.84375 3.789062 Z M 14.84375 3.789062 "/>
<path style=" stroke:none;fill-rule:nonzero;fill:rgb(100%,100%,100%);fill-opacity:1;" d="M 7.894531 6 L 4.738281 6 C 4.105469 6 3.683594 6.421875 3.683594 7.050781 L 3.683594 13.261719 L 5.050781 13.261719 L 5.050781 17.472656 L 5.683594 17.472656 L 5.683594 13.261719 L 6.84375 13.261719 L 6.84375 17.472656 L 7.472656 17.472656 L 7.472656 13.261719 L 8.84375 13.261719 L 8.84375 7.050781 C 8.84375 6.527344 8.421875 6.105469 7.894531 6 Z M 7.894531 6 "/>
<path style=" stroke:none;fill-rule:nonzero;fill:rgb(100%,100%,100%);fill-opacity:1;" d="M 16.105469 13.261719 L 15.050781 7.261719 C 14.949219 6.527344 14.316406 6 13.472656 6 C 12.738281 6 12.105469 6.527344 12 7.261719 L 10.949219 13.261719 L 12.316406 13.261719 L 12.316406 17.472656 L 12.949219 17.472656 L 12.949219 13.261719 L 14.105469 13.261719 L 14.105469 17.472656 L 14.738281 17.472656 L 14.738281 13.261719 Z M 16.105469 13.261719 "/>
</g>
</svg>
