<?xml version="1.0" encoding="UTF-8"?>
<svg xmlns="http://www.w3.org/2000/svg" xmlns:xlink="http://www.w3.org/1999/xlink" width="500px" height="500px" viewBox="0 0 20 20" version="1.1">
<g id="surface1">
<path style=" stroke:none;fill-rule:nonzero;fill:rgb(13.72549%,12.156863%,12.54902%);fill-opacity:1;" d="M 0.523438 0.523438 L 19.476562 0.523438 L 19.476562 19.476562 L 0.523438 19.476562 Z M 0.523438 0.523438 "/>
<path style=" stroke:none;fill-rule:nonzero;fill:rgb(100%,100%,100%);fill-opacity:1;" d="M 18.953125 1.039062 L 18.953125 18.953125 L 1.039062 18.953125 L 1.039062 1.039062 L 18.953125 1.039062 M 20.023438 0 L 0 0 L 0 20.023438 L 20.023438 20.023438 Z M 20.023438 0 "/>
<path style=" stroke:none;fill-rule:nonzero;fill:rgb(100%,100%,100%);fill-opacity:1;" d="M 11.136719 4.460938 C 11.136719 5.113281 10.605469 5.644531 9.949219 5.644531 C 9.296875 5.644531 8.765625 5.113281 8.765625 4.460938 C 8.765625 3.804688 9.296875 3.273438 9.949219 3.273438 C 10.605469 3.273438 11.136719 3.804688 11.136719 4.460938 Z M 11.136719 4.460938 "/>
<path style=" stroke:none;fill-rule:nonzero;fill:rgb(100%,100%,100%);fill-opacity:1;" d="M 12.320312 7.355469 C 12.320312 7.117188 12.226562 6.886719 12.058594 6.71875 C 11.886719 6.550781 11.660156 6.460938 11.421875 6.460938 L 8.515625 6.460938 C 8.023438 6.460938 7.625 6.859375 7.625 7.355469 L 7.625 12.9375 L 8.855469 12.9375 L 8.855469 16.789062 L 9.449219 16.789062 L 9.449219 12.9375 L 10.457031 12.9375 L 10.457031 16.789062 L 11.050781 16.789062 L 11.050781 12.9375 L 12.320312 12.9375 Z M 12.320312 7.355469 "/>
</g>
</svg>
