<?xml version="1.0" encoding="UTF-8"?>
<svg xmlns="http://www.w3.org/2000/svg" xmlns:xlink="http://www.w3.org/1999/xlink" width="500px" height="500px" viewBox="0 0 20 20" version="1.1">
<g id="surface1">
<rect x="0" y="0" width="20" height="20" style="fill:rgb(13.72549%,12.156863%,12.54902%);fill-opacity:1;stroke:none;"/>
<path style=" stroke:none;fill-rule:nonzero;fill:rgb(100%,100%,100%);fill-opacity:1;" d="M 12.605469 6.699219 L 12.605469 4.710938 C 12.605469 3.699219 11.785156 2.878906 10.773438 2.878906 L 9.183594 2.878906 C 8.695312 2.878906 8.226562 3.070312 7.882812 3.414062 C 7.539062 3.757812 7.34375 4.226562 7.34375 4.710938 L 7.34375 6.699219 L 5.28125 6.699219 L 5.28125 16.433594 L 14.675781 16.433594 L 14.675781 6.699219 Z M 8.015625 4.710938 C 8.015625 4.066406 8.539062 3.542969 9.183594 3.542969 L 10.773438 3.542969 C 11.417969 3.542969 11.941406 4.066406 11.941406 4.710938 L 11.941406 6.699219 L 8.015625 6.699219 Z M 8.015625 4.710938 "/>
</g>
</svg>
